<mxfile host="app.diagrams.net" agent="Mozilla/5.0 (Windows NT 10.0; Win64; x64) AppleWebKit/537.36 (KHTML, like Gecko) Chrome/128.0.0.0 Safari/537.36" version="24.7.8">
  <diagram name="Page-1" id="Ahl36jk23yU5DYziLWWO">
    <mxGraphModel grid="0" page="0" gridSize="10" guides="1" tooltips="1" connect="1" arrows="1" fold="1" pageScale="1" pageWidth="850" pageHeight="1100" math="0" shadow="0">
      <root>
        <mxCell id="0" />
        <mxCell id="1" parent="0" />
        <mxCell id="K46posD8M_TdlNwD6BB8-4" value="PortFolio Home" style="rounded=1;whiteSpace=wrap;html=1;" vertex="1" parent="1">
          <mxGeometry x="748" y="-704" width="288" height="94" as="geometry" />
        </mxCell>
        <mxCell id="K46posD8M_TdlNwD6BB8-6" value="" style="strokeWidth=1;shadow=0;dashed=0;align=center;html=1;shape=mxgraph.mockup.containers.browserWindow;rSize=0;strokeColor=#666666;strokeColor2=#008cff;strokeColor3=#c4c4c4;mainText=,;recursiveResize=0;" vertex="1" parent="1">
          <mxGeometry x="396" y="-445" width="877" height="1189" as="geometry" />
        </mxCell>
        <mxCell id="K46posD8M_TdlNwD6BB8-7" value="Page 1" style="strokeWidth=1;shadow=0;dashed=0;align=center;html=1;shape=mxgraph.mockup.containers.anchor;fontSize=17;fontColor=#666666;align=left;whiteSpace=wrap;" vertex="1" parent="K46posD8M_TdlNwD6BB8-6">
          <mxGeometry x="60" y="12" width="110" height="26" as="geometry" />
        </mxCell>
        <mxCell id="K46posD8M_TdlNwD6BB8-8" value="https://www.draw.io" style="strokeWidth=1;shadow=0;dashed=0;align=center;html=1;shape=mxgraph.mockup.containers.anchor;rSize=0;fontSize=17;fontColor=#666666;align=left;" vertex="1" parent="K46posD8M_TdlNwD6BB8-6">
          <mxGeometry x="130" y="60" width="250" height="26" as="geometry" />
        </mxCell>
        <mxCell id="K46posD8M_TdlNwD6BB8-9" value="&lt;span style=&quot;white-space: pre;&quot;&gt;&#x9;&lt;/span&gt;&lt;span style=&quot;white-space: pre;&quot;&gt;&#x9;&lt;/span&gt;&lt;span style=&quot;white-space: pre;&quot;&gt;&#x9;&lt;/span&gt;&lt;span style=&quot;white-space: pre;&quot;&gt;&#x9;&lt;/span&gt;&lt;span style=&quot;white-space: pre;&quot;&gt;&#x9;&lt;/span&gt;&lt;span style=&quot;white-space: pre;&quot;&gt;&#x9;&lt;/span&gt;&lt;span style=&quot;white-space: pre;&quot;&gt;&#x9;&lt;/span&gt;&lt;span style=&quot;white-space: pre;&quot;&gt;&#x9;&lt;/span&gt;&lt;span style=&quot;white-space: pre;&quot;&gt;&#x9;&lt;/span&gt;&lt;span style=&quot;white-space: pre;&quot;&gt;&#x9;&lt;/span&gt;&lt;span style=&quot;white-space: pre;&quot;&gt;&#x9;&lt;/span&gt;&lt;span style=&quot;white-space: pre;&quot;&gt;&#x9;&lt;/span&gt;&lt;span style=&quot;white-space: pre;&quot;&gt;&#x9;&lt;/span&gt;&lt;span style=&quot;white-space: pre;&quot;&gt;&#x9;&lt;/span&gt;&lt;span style=&quot;white-space: pre;&quot;&gt;&#x9;&lt;/span&gt;&lt;span style=&quot;white-space: pre;&quot;&gt;&#x9;&lt;/span&gt;&lt;span style=&quot;white-space: pre;&quot;&gt;&#x9;&lt;/span&gt;About&amp;nbsp;&lt;span style=&quot;white-space: pre;&quot;&gt;&#x9;&lt;/span&gt;&lt;span style=&quot;white-space: pre;&quot;&gt;&#x9;&lt;/span&gt;Projects&lt;span style=&quot;white-space: pre;&quot;&gt;&#x9;&lt;/span&gt;&lt;span style=&quot;white-space: pre;&quot;&gt;&#x9;&lt;/span&gt;Skills&lt;span style=&quot;white-space: pre;&quot;&gt;&#x9;&lt;/span&gt;&lt;span style=&quot;white-space: pre;&quot;&gt;&#x9;&lt;/span&gt;Contact&lt;span style=&quot;white-space: pre;&quot;&gt;&#x9;&lt;/span&gt;&lt;span style=&quot;white-space: pre;&quot;&gt;&#x9;&lt;/span&gt;Resume" style="rounded=0;whiteSpace=wrap;html=1;" vertex="1" parent="K46posD8M_TdlNwD6BB8-6">
          <mxGeometry x="2.75" y="112" width="874.25" height="60" as="geometry" />
        </mxCell>
        <mxCell id="K46posD8M_TdlNwD6BB8-10" value="" style="endArrow=classic;html=1;rounded=0;fontSize=12;startSize=8;endSize=8;curved=1;" edge="1" parent="K46posD8M_TdlNwD6BB8-6" target="K46posD8M_TdlNwD6BB8-11">
          <mxGeometry width="50" height="50" relative="1" as="geometry">
            <mxPoint x="845.75" y="142" as="sourcePoint" />
            <mxPoint x="970.75" y="18" as="targetPoint" />
          </mxGeometry>
        </mxCell>
        <mxCell id="K46posD8M_TdlNwD6BB8-12" value="" style="verticalLabelPosition=bottom;shadow=0;dashed=0;align=center;html=1;verticalAlign=top;strokeWidth=1;shape=mxgraph.mockup.containers.userMale;strokeColor=#666666;strokeColor2=#008cff;" vertex="1" parent="K46posD8M_TdlNwD6BB8-6">
          <mxGeometry x="451.75" y="317" width="246" height="226" as="geometry" />
        </mxCell>
        <mxCell id="K46posD8M_TdlNwD6BB8-15" value="" style="endArrow=classic;html=1;rounded=0;fontSize=12;startSize=8;endSize=8;curved=1;" edge="1" parent="K46posD8M_TdlNwD6BB8-6" target="K46posD8M_TdlNwD6BB8-16">
          <mxGeometry width="50" height="50" relative="1" as="geometry">
            <mxPoint x="683" y="487" as="sourcePoint" />
            <mxPoint x="1034" y="622" as="targetPoint" />
          </mxGeometry>
        </mxCell>
        <mxCell id="K46posD8M_TdlNwD6BB8-17" value="Introduction of creator and maybe provide links at the bottom of screen for users to click" style="rounded=0;whiteSpace=wrap;html=1;" vertex="1" parent="K46posD8M_TdlNwD6BB8-6">
          <mxGeometry x="127" y="317.5" width="229" height="118" as="geometry" />
        </mxCell>
        <mxCell id="K46posD8M_TdlNwD6BB8-18" value="See Projects" style="strokeWidth=1;shadow=0;dashed=0;align=center;html=1;shape=mxgraph.mockup.buttons.button;strokeColor=#666666;fontColor=#ffffff;mainText=;buttonStyle=round;fontSize=17;fontStyle=1;fillColor=#008cff;whiteSpace=wrap;" vertex="1" parent="K46posD8M_TdlNwD6BB8-6">
          <mxGeometry x="94" y="482" width="150" height="50" as="geometry" />
        </mxCell>
        <mxCell id="K46posD8M_TdlNwD6BB8-20" value="" style="ellipse;whiteSpace=wrap;html=1;aspect=fixed;" vertex="1" parent="K46posD8M_TdlNwD6BB8-6">
          <mxGeometry x="166.5" y="562" width="48" height="48" as="geometry" />
        </mxCell>
        <mxCell id="K46posD8M_TdlNwD6BB8-21" value="" style="ellipse;whiteSpace=wrap;html=1;aspect=fixed;" vertex="1" parent="K46posD8M_TdlNwD6BB8-6">
          <mxGeometry x="266.5" y="560" width="50" height="50" as="geometry" />
        </mxCell>
        <mxCell id="K46posD8M_TdlNwD6BB8-22" value="" style="shape=image;html=1;verticalAlign=top;verticalLabelPosition=bottom;labelBackgroundColor=#ffffff;imageAspect=0;aspect=fixed;image=https://cdn3.iconfinder.com/data/icons/social-media-black-white-2/512/BW_Twitter_glyph_svg-128.png" vertex="1" parent="K46posD8M_TdlNwD6BB8-6">
          <mxGeometry x="176" y="574" width="29" height="29" as="geometry" />
        </mxCell>
        <mxCell id="K46posD8M_TdlNwD6BB8-26" style="edgeStyle=none;curved=1;rounded=0;orthogonalLoop=1;jettySize=auto;html=1;exitX=1;exitY=0;exitDx=0;exitDy=0;entryX=1;entryY=0;entryDx=0;entryDy=0;fontSize=12;startSize=8;endSize=8;" edge="1" parent="K46posD8M_TdlNwD6BB8-6" source="K46posD8M_TdlNwD6BB8-23" target="K46posD8M_TdlNwD6BB8-21">
          <mxGeometry relative="1" as="geometry" />
        </mxCell>
        <mxCell id="K46posD8M_TdlNwD6BB8-23" value="" style="shape=image;html=1;verticalAlign=top;verticalLabelPosition=bottom;labelBackgroundColor=#ffffff;imageAspect=0;aspect=fixed;image=https://cdn1.iconfinder.com/data/icons/social-media-rounded-corners/512/Rounded_Facebook_svg-128.png" vertex="1" parent="K46posD8M_TdlNwD6BB8-6">
          <mxGeometry x="276" y="569.5" width="31" height="31" as="geometry" />
        </mxCell>
        <mxCell id="K46posD8M_TdlNwD6BB8-25" value="" style="ellipse;whiteSpace=wrap;html=1;aspect=fixed;" vertex="1" parent="K46posD8M_TdlNwD6BB8-6">
          <mxGeometry x="216.5" y="561" width="50" height="50" as="geometry" />
        </mxCell>
        <mxCell id="K46posD8M_TdlNwD6BB8-28" value="" style="verticalLabelPosition=bottom;html=1;verticalAlign=top;align=center;strokeColor=none;fillColor=#00BEF2;shape=mxgraph.azure.github_code;pointerEvents=1;" vertex="1" parent="K46posD8M_TdlNwD6BB8-6">
          <mxGeometry x="223" y="566.5" width="37" height="34" as="geometry" />
        </mxCell>
        <mxCell id="K46posD8M_TdlNwD6BB8-29" value="Contact me" style="strokeWidth=1;shadow=0;dashed=0;align=center;html=1;shape=mxgraph.mockup.buttons.button;strokeColor=#666666;fontColor=#ffffff;mainText=;buttonStyle=round;fontSize=17;fontStyle=1;fillColor=#008cff;whiteSpace=wrap;" vertex="1" parent="K46posD8M_TdlNwD6BB8-6">
          <mxGeometry x="276" y="482" width="150" height="50" as="geometry" />
        </mxCell>
        <mxCell id="K46posD8M_TdlNwD6BB8-11" value="Create downloadable pdf when user clicks on link" style="whiteSpace=wrap;html=1;aspect=fixed;" vertex="1" parent="1">
          <mxGeometry x="1408" y="-470" width="158" height="158" as="geometry" />
        </mxCell>
        <mxCell id="K46posD8M_TdlNwD6BB8-13" value="" style="endArrow=classic;html=1;rounded=0;fontSize=12;startSize=8;endSize=8;curved=1;" edge="1" parent="1" target="K46posD8M_TdlNwD6BB8-14">
          <mxGeometry width="50" height="50" relative="1" as="geometry">
            <mxPoint x="1311" y="-276" as="sourcePoint" />
            <mxPoint x="1457" y="-154" as="targetPoint" />
          </mxGeometry>
        </mxCell>
        <mxCell id="K46posD8M_TdlNwD6BB8-14" value="Try to make the nav bar into a sticky nav bar when scrolling, change the background color, and make the links drop down when page first loads" style="whiteSpace=wrap;html=1;aspect=fixed;" vertex="1" parent="1">
          <mxGeometry x="1400" y="-170" width="188" height="188" as="geometry" />
        </mxCell>
        <mxCell id="K46posD8M_TdlNwD6BB8-16" value="Using creator image as background url and then have a fade in transition when page first loads up" style="whiteSpace=wrap;html=1;aspect=fixed;" vertex="1" parent="1">
          <mxGeometry x="1445" y="143" width="171" height="171" as="geometry" />
        </mxCell>
      </root>
    </mxGraphModel>
  </diagram>
</mxfile>
